# xmcd
#
# Track frame offsets:
# 150
# 19677
# 45849
# 71720
# 100516
# 124860
# 147220
# 176532
# 193671
# 216550
# 234370
# 247396
#
# Disc length: 3495 seconds
#
#
# Revision: 0
# Processed by: cddbd v1.5.2PL0 Copyright (c) Steve Scherf et al.
# Submitted via: Nero 7, 11, 10, 0 
#
DISCID=aa0da50c
DTITLE=Roy Carrier - Living Legend
DYEAR=2004
DGENRE=Blues
TTITLE0=Put A Hump In Your Back
TTITLE1=Everybody Call Me Shoon
TTITLE2=Don't Touch That
TTITLE3=I Got Something For You Baby
TTITLE4=I Come From The Country
TTITLE5=What You Gonna Do With A Man Like That
TTITLE6=You Told Me That You Love Me
TTITLE7=She Burnt The Bacon
TTITLE8=Do The Lala Dance
TTITLE9=Take Me Crosstown
TTITLE10=Bring Me Coffee In The Morning 
TTITLE11=You Got Me Dancing
EXTD=
EXTT0=Put A Hump In Your Back
EXTT1=Everybody Call Me Shoon
EXTT2=Don't Touch That
EXTT3=I Got Something For You Baby
EXTT4=I Come From The Country
EXTT5=What You Gonna Do With A Man Like That
EXTT6=You Told Me That You Love Me
EXTT7=She Burnt The Bacon
EXTT8=Do The Lala Dance
EXTT9=Take Me Crosstown
EXTT10=Bring Me Coffee In The Morning 
EXTT11=You Got Me Dancing
PLAYORDER=
